# xmcd
#
# Track frame offsets:
#	150
#	17863
#	34853
#	53387
#	68753
#	82624
#	97202
#	114404
#	131563
#	153068
#	168099
#	186948
#	207084
#	225003
#	242461
#	261041
#	278108
#
# Disc length: 3912 seconds
#
# Revision: 0
# Processed by: cddbd v1.5.2PL0 Copyright (c) Steve Scherf et al.
# Submitted via: audiograbber 1.83.01
#
DISCID=c70f4611
DTITLE=JonesTM - HC200829
DYEAR=2008
DGENRE=Country
TTITLE0=Derek Sholl - Here
TTITLE1=Tim McGraw - Let It Go
TTITLE2=Billy Ray Cyrus - Somebody Said A Prayer
TTITLE3=Hayes Carll - It's A Shame [Country Version]
TTITLE4=Trent Willmon - Cold Beer And A Fishin' Pole [Radio Edit]
TTITLE5=Rehab Feat. Hank Williams Jr. - Bartender Song (Sittin' At A Bar) [Coun
TTITLE5=try Version]
TTITLE6=Jon B. - Oh So Sexy [Radio Edit]
TTITLE7=Kirk Franklin - Jesus (Fo Yo Soul)
TTITLE8=Mint Condition - Nothing Left To Say
TTITLE9=L.A. Chillharmonic Feat. Richard Smith - Boogie On Reggae Woman [Radio 
TTITLE9=Edit #1]
TTITLE10=Dave Koz - Life In The Fast Lane [Album Version]
TTITLE11=Native Vibe feat. Jeff Kashiwa - Now's The Time
TTITLE12=Jordan, Stanley - Steppin' Out [Radio Edit #1]
TTITLE13=Jason Miles - Strawberry Moon [Radio Edit]
TTITLE14=Terrence Howard - Sanctuary [Radio Edit]
TTITLE15=Tim Bowman - Sweet Sundays
TTITLE16=Victoria White - Keep On
EXTD=
EXTT0=
EXTT1=
EXTT2=
EXTT3=
EXTT4=
EXTT5=
EXTT6=
EXTT7=
EXTT8=
EXTT9=
EXTT10=
EXTT11=
EXTT12=
EXTT13=
EXTT14=
EXTT15=
EXTT16=
PLAYORDER=
